<?xml version="1.0" encoding="utf-8"?>
<!-- Generator: Adobe Illustrator 27.5.0, SVG Export Plug-In . SVG Version: 6.00 Build 0)  -->
<svg version="1.1" id="BASE" xmlns="http://www.w3.org/2000/svg" xmlns:xlink="http://www.w3.org/1999/xlink" x="0px" y="0px"
	 viewBox="0 0 2279 1975" style="enable-background:new 0 0 2279 1975;" xml:space="preserve">
<g>
	<g>
		<path style="fill:#FCBC0C;" d="M1974.545,883.09c0,0,86.329-9.981,152.21-59.18l-26.36-99.987c0,0-68.569,83.461-135.557,78.207
			c0,0,50.034-11.972,73.534-59.36l-13.982-40.926c0,0-55.841,107.244-213.77,34.178c0,0-33.959-24.25-73.908-29.923
			c-2.365-0.334-4.748-0.603-7.147-0.8c-0.151-2.674-0.483-5.369-1.018-8.071c-4.725-23.875-23.464-41.409-45.976-45.749
			l192.081-272.394l-0.204,0.004l0.202-0.012l-393.433,0.604c-0.773-1.571-1.583-3.189-2.403-4.725
			c-41.712-80.423-105.275-147.449-190.023-182.38c-176.596-72.815-393.949,25.385-486.223,185.75
			c-0.436,0.788-0.916,1.611-1.353,2.398l-307.808,0.473L151.921,1719.566l16.646-52.399l-16.649,52.411l506.265-201.531
			l169.162,252.552c1.357,2.324,2.843,4.62,4.48,6.723c63.842,82.045,324.201-13.743,581.463-213.924
			c257.308-200.216,414.094-429.017,350.253-511.062c-2.002-2.572-4.273-5.008-6.694-7.251l-40.684-44.375l-158.25-172.452
			l63.662-90.28c10.849,18.411,31.322,29.729,53.242,28.484c0.185,14.122,1.823,29.526,5.846,45.675
			c5.419,21.744,14.204,41.046,25.072,58.095c45.752,71.888,128.251,104.023,149.986,112.511
			c102.311,39.886,195.149,14.777,227.687,4.262c11.229-31.81,22.489-63.627,33.718-95.437
			C2117.127,891.567,2018.42,919.908,1974.545,883.09z M816.671,380.702c47.142-79.754,126.402-139.925,211.995-173.055
			c85.824-33.231,180.917-36.223,265.54,2.407c77.276,35.264,128.021,97.779,166.538,169.656c0,0.002,0.001,0.003,0.002,0.004
			L816.671,380.702z"/>
	</g>
	<g>
		<path style="fill:#080E1A;" d="M1763.542,1052.336c-2.002-2.572-4.273-5.008-6.694-7.251l-40.684-44.375l-158.25-172.452
			l63.662-90.28c-3.236-5.489-5.618-11.607-6.926-18.212c-3.378-17.069,1.104-33.868,10.934-46.66
			c-10.084-10.892-19.476-22.224-28.297-33.922c-49.639-65.819-81.248-143.264-116.726-219.728
			c-2.562-5.511-5.208-11.033-7.863-16.473c-0.005-0.011-0.012-0.023-0.017-0.035c0-0.001,0-0.001-0.002-0.002
			c-3.866-7.855-7.788-15.592-11.933-23.232l-644.076,0.989c-0.003,0.005-0.007,0.012-0.011,0.018l-15.452,0.013
			c0.002-0.002,0.003-0.005,0.004-0.008l-307.808,0.473L151.921,1719.566l16.646-52.399l-16.649,52.411l506.265-201.531
			l169.162,252.552c1.357,2.324,2.843,4.62,4.48,6.723c63.842,82.045,324.201-13.743,581.463-213.924
			C1670.597,1363.181,1827.382,1134.381,1763.542,1052.336z"/>
		<path style="fill:#142134;" d="M1472.68,402.945c-3.866-7.855-7.788-15.592-11.933-23.232l-644.076,0.989
			c-0.003,0.005-0.007,0.012-0.011,0.018l-15.452,0.013c0.002-0.002,0.003-0.005,0.004-0.008l-307.808,0.473L151.921,1719.566
			l16.646-52.399l153.253-482.414l231.01-727.183l919.852-54.622C1472.682,402.946,1472.682,402.946,1472.68,402.945z"/>
		<path style="fill:#080E1A;" d="M1492.271,401.782l0.001,0.002c0.009,0.018,0.018,0.036,0.027,0.055
			c36.857,75.274,67.187,152.436,114.822,219.447c9.682,13.618,20.078,26.82,31.389,39.5c6.368-4.422,13.729-7.636,21.819-9.237
			c7.576-1.498,15.098-1.446,22.24-0.069l192.081-272.394l-0.154,0.001l0.152-0.009l-393.433,0.604
			c0.001,0.003,0.003,0.005,0.004,0.009C1485.022,386.985,1488.69,394.389,1492.271,401.782z"/>
		<path style="fill:#0D1523;" d="M1763.542,1052.336c-2.002-2.572-4.273-5.008-6.694-7.251l-40.684-44.375l-158.25-172.452
			l-49.99-54.476l-149.622-163.048c-2.23-4.795-4.88-9.263-8.081-13.377c-2.006-2.579-4.188-4.972-6.558-7.208
			c0.016-0.005,0.032-0.01,0.047-0.016c-46.93-44.981-162.227-25.98-299.915,41.374l-0.086,0.041
			c-1.594,0.781-3.19,1.567-4.79,2.359c-0.085,0.042-0.172,0.085-0.256,0.127c-0.7,0.347-1.4,0.696-2.101,1.045
			c-0.161,0.08-0.321,0.16-0.483,0.241c-0.635,0.316-1.271,0.636-1.906,0.955c-0.224,0.113-0.449,0.225-0.674,0.338
			c-0.593,0.298-1.187,0.596-1.78,0.897l-0.758,0.383c-0.56,0.284-1.12,0.568-1.681,0.853c-0.304,0.154-0.607,0.308-0.911,0.462
			c-0.473,0.241-0.945,0.482-1.419,0.723c-0.427,0.219-0.853,0.437-1.281,0.655c-0.349,0.18-0.7,0.359-1.049,0.539
			c-0.547,0.281-1.094,0.563-1.642,0.845c-0.26,0.135-0.522,0.27-0.784,0.405c-0.554,0.286-1.108,0.573-1.663,0.862
			c-0.309,0.16-0.618,0.321-0.928,0.482c-0.592,0.308-1.184,0.617-1.777,0.927l-0.542,0.282c-0.695,0.364-1.389,0.729-2.085,1.095
			c-0.133,0.069-0.264,0.139-0.398,0.208c-0.743,0.391-1.488,0.785-2.234,1.179c-0.072,0.038-0.146,0.077-0.22,0.116
			c-0.802,0.424-1.604,0.85-2.409,1.278c-0.019,0.011-0.039,0.021-0.06,0.032c-65.568,34.915-135.17,80.009-204.184,133.712
			c-75.671,58.882-141.486,120.988-193.939,180.926c-0.832,0.952-1.662,1.903-2.487,2.853
			c-96.331,110.845-146.665,213.958-128.764,275.097c2.544,8.689,6.466,16.532,11.831,23.428l-2.44,1.898l0.018,0.027
			l88.235,131.709l80.034,119.562l169.162,252.552c1.357,2.324,2.843,4.62,4.48,6.723c63.842,82.045,324.201-13.743,581.463-213.924
			C1670.597,1363.181,1827.382,1134.381,1763.542,1052.336z"/>
		<path style="fill:#142134;" d="M1763.542,1052.336c-2.002-2.572-4.273-5.008-6.694-7.251l-40.684-44.375l-158.25-172.452
			l-49.99-54.476l-149.622-163.048c-2.23-4.795-4.88-9.263-8.081-13.377c-2.006-2.579-4.188-4.972-6.558-7.208
			c-0.464-0.438-0.934-0.872-1.413-1.299c-1.651,1.152-3.295,2.321-4.931,3.505c-118.408,41.543-236.552,105.261-346.608,190.897
			c-172.245,134.027-297.281,300.398-366.911,470.468c-19.724,48.175-35.004,96.647-45.65,144.766l80.034,119.562l169.162,252.552
			c1.357,2.324,2.843,4.62,4.48,6.723c63.842,82.045,324.201-13.743,581.463-213.924
			C1670.597,1363.181,1827.382,1134.381,1763.542,1052.336z"/>
		<path style="fill:#19283E;" d="M1358.302,610.733c-2.23-4.795-4.88-9.263-8.081-13.376c-2.006-2.58-4.188-4.973-6.557-7.208
			c-0.465-0.438-0.935-0.873-1.413-1.299c-1.651,1.152-3.295,2.321-4.931,3.505c-52.034,37.672-96.661,91.941-125.997,158.791
			c-46.092,104.987-43.706,216.764-2.365,302.092c23.931,49.397,60.917,89.93,109.111,115.152c4.783,2.503,9.678,4.855,14.68,7.051
			c135.91,59.592,302.863-18.305,383.417-174.73l-158.25-172.452l-49.99-54.476L1358.302,610.733z"/>
		<path d="M489.914,1266.776l-0.018-0.027l2.44-1.898c-5.365-6.896-9.287-14.739-11.831-23.428
			c-57.465-11.21-110.892-30.065-158.685-56.67l-153.253,482.414l-16.648,52.411l506.265-201.531l-168.292-251.251L489.914,1266.776
			z"/>
		<path d="M1625.585,673.105c-10.084-10.892-19.476-22.224-28.297-33.922c-25.644,45.603-55.5,90.684-89.364,134.598l49.99,54.476
			l63.662-90.28c-3.236-5.489-5.618-11.607-6.925-18.212C1611.273,702.695,1615.755,685.897,1625.585,673.105z"/>
		<path d="M879.279,1780.578c26.853,40.785,313.661-68.21,520.596-228.113c210.96-163.015,388.281-417.089,355.174-453.34
			C1692.134,1030.236,828.012,1702.716,879.279,1780.578z"/>
		<path style="fill:#0A101D;" d="M552.83,457.569l919.852-54.622c0-0.001,0-0.001-0.001-0.002
			c-3.866-7.855-7.789-15.593-11.933-23.232l-644.077,0.989c-0.003,0.005-0.006,0.012-0.011,0.018l-15.452,0.013
			c0.002-0.002,0.003-0.005,0.004-0.008l-307.809,0.473l59.418,76.361L552.83,457.569z"/>
		<path style="fill:#F7A516;" d="M1686.064,812.678c-2.321-18.214,7.733-17.245,16.972-4.279
			c8.37,11.725,14.005,27.245,24.129,37.209c-5.848-10.284-30.358-56.063-10.243-59.912c26.576-5.093,48.256,35.196,69.538,42.064
			c-17.35-14.912-36.094-29.055-51.403-45.948c-4.5-4.961-11.461-18.378-8.278-25.222c5.05-10.862,24.958-6.615,33.995-5.477
			c33.702,4.18,62.543,26.155,94.973,34.368c-20.843-11.624-43.31-19.835-64.959-29.721c-14.198-6.463-51.682-20.776-57.506-36.752
			c-2.315-6.38-0.661-10.488,3.429-12.908c-2.364-0.334-4.748-0.604-7.147-0.8c1.604,28.447-17.948,54.455-46.697,60.143
			c-2.694,0.533-5.382,0.865-8.048,1.018c0.184,14.122,1.822,29.526,5.846,45.675c5.419,21.744,14.204,41.046,25.072,58.095
			c-0.786-2.145-1.546-4.329-2.308-6.513C1697.582,846.957,1688.337,830.474,1686.064,812.678z"/>
		<path style="fill:#FFE400;" d="M1720.932,708.597c-0.248-1.249-0.554-2.472-0.912-3.667
			c-5.667-18.861-24.847-30.688-44.565-26.786c-5.313,1.052-10.154,3.145-14.355,6.025c-1.212,0.83-2.369,1.725-3.471,2.68
			c-3.275,2.842-6.041,6.209-8.193,9.941c-0.974,1.687-1.822,3.448-2.533,5.271c-2.591,6.633-3.385,14.058-1.9,21.561
			c3.106,15.696,15.296,27.281,30.026,30.375c4.946,1.039,10.179,1.121,15.451,0.078
			C1711.447,749.925,1725.081,729.565,1720.932,708.597z"/>
		<path style="fill:#FFE400;" d="M1638.78,711.214c-0.654-13.854-6.165-24.85-12.307-24.56c-6.142,0.29-10.591,11.756-9.937,25.61
			c0.471,9.992,3.469,18.496,7.409,22.353c1.522,1.491,3.185,2.288,4.897,2.207c5.803-0.274,10.093-10.52,9.999-23.331
			C1638.836,712.741,1638.817,711.982,1638.78,711.214z"/>
		<path style="fill:#FFE400;" d="M2107.162,816.28l-13.146-66.438c0,0-84.337,105.453-229.041,38.744
			c16.756,13.592,50.022,36.73,97.942,46.373C2032.55,848.973,2088.1,825.426,2107.162,816.28z"/>
		<path style="fill:#FFE400;" d="M2079.044,956.635l17.173-46.137c0,0-172.094,27.477-300.911-75.25
			C1795.306,835.248,1920.892,971.49,2079.044,956.635z"/>
		<path style="fill:#0A101D;" d="M1874.49,379.088l0.158-0.01l-393.433,0.604c0.001,0.003,0.003,0.005,0.004,0.009
			c3.803,7.295,7.471,14.699,11.052,22.092l0.001,0.002l201.699-11.977c-16.275,76.341-45.556,154.527-86.849,231.479
			c9.682,13.618,20.078,26.82,31.389,39.5c6.368-4.422,13.729-7.636,21.819-9.237c7.576-1.498,15.098-1.446,22.24-0.069
			l192.081-272.394C1874.648,379.086,1874.593,379.086,1874.49,379.088z"/>
		<path d="M1607.121,621.286c9.682,13.618,20.078,26.82,31.389,39.5c6.368-4.422,13.729-7.636,21.819-9.236
			c7.576-1.499,15.098-1.446,22.24-0.069l192.081-272.394l-174.617,10.361l-6.063,0.36
			C1677.696,466.149,1648.415,544.334,1607.121,621.286z"/>
	</g>
</g>
</svg>
